<svg width="166" height="166" viewBox="0 0 166 166" fill="none" xmlns="http://www.w3.org/2000/svg">
<path d="M132.8 0H66.4V16.6H83V33.2H99.6V16.6H132.8V0ZM149.4 33.2V16.6H132.8V33.2H149.4ZM149.4 116.2H166V33.2H149.4V116.2ZM132.8 132.8H149.4V116.2H132.8V132.8ZM116.2 149.4H132.8V132.8H116.2V149.4ZM33.2 149.4V166H116.2V149.4H33.2ZM16.6 132.8V149.4H33.2V132.8H16.6ZM33.2 99.6V83H16.6V66.4H0V132.8H16.6V99.6H33.2ZM83 99.6H33.2V116.2H83V99.6ZM99.6 83H83V99.6H99.6V83ZM99.6 83V33.2H116.2V83H99.6ZM33.2 0H16.6V16.6H0V33.2H16.6V49.8H33.2V33.2H49.8V16.6H33.2V0Z" fill="white"/>
</svg>
